# File created by Blade
# Date/Time:  Wed Jan 21 17:21:31 2015
# Frame Rate: 120.000 fps
#------------------------------------------------------
:FULLY-SPECIFIED
:DEGREES
534
root 21.631673 15.428030 -22.652403 -155.999064 18.372304 -209.627413
Spine 30.010781 33.043683 -34.247833
Head 9.327868 -12.367418 0.667647
LeftShoulder -5.020761 -18.471985 -9.993923
LeftArm -18.552333 25.648973 -61.359051
LeftForeArm 12.553916 -0.000000 -0.891543
LeftHand -2.726925 0.000000 -10.041067
LeftHandThumb1 -26.253704 0.000000 33.147579
RightShoulder 16.600829 -4.031502 -5.458182
RightArm 38.588640 9.227239 61.038723
RightForeArm -4.165044 -0.000000 4.864624
RightHand -5.664522 -0.000000 2.718628
RightHandThumb1 -24.326973 -0.000000 -32.862282
LeftUpLeg -120.165010 -2.649623 -41.517649
LeftLeg 111.896973 -0.000000 -0.000000
LeftFoot -37.085702 23.086415 -7.925581
LeftToeBase 23.615601 -0.000000 -0.000000
RightUpLeg 12.173659 -19.043959 -20.991152
RightLeg 129.608672 -0.000000 -0.000000
RightFoot 43.557156 -22.059095 -3.645372
RightToeBase 27.286809 -0.000000 -0.000000
535
root 21.653058 15.443872 -22.665230 -156.148685 18.314132 -209.777948
Spine 30.313396 33.256479 -34.341233
Head 8.937269 -12.441440 0.689892
LeftShoulder -5.117484 -18.688546 -10.005713
LeftArm -19.100518 25.261655 -61.697812
LeftForeArm 12.613136 -0.000000 -1.060908
LeftHand -2.603239 0.000000 -10.190061
LeftHandThumb1 -26.253704 0.000000 33.147579
RightShoulder 16.677612 -3.894714 -5.576586
RightArm 38.467450 9.402658 61.178686
RightForeArm -4.105193 -0.000000 4.738899
RightHand -5.582455 0.000000 2.903140
RightHandThumb1 -24.326973 -0.000000 -32.862282
LeftUpLeg -119.945584 -2.516189 -41.737106
LeftLeg 111.859891 -0.000000 -0.000000
LeftFoot -37.098862 22.904401 -7.926102
LeftToeBase 23.604825 -0.000000 -0.000000
RightUpLeg 12.311844 -19.139217 -21.134338
RightLeg 129.701388 -0.000000 -0.000000
RightFoot 43.523287 -22.572126 -3.236258
RightToeBase 28.636185 -0.000000 -0.000000
536
root 21.665861 15.451605 -22.654292 -155.948486 18.229212 -209.834335
Spine 30.143830 33.283204 -34.521310
Head 8.787045 -12.444376 0.665807
LeftShoulder -5.208945 -18.768415 -10.018082
LeftArm -19.690519 24.958291 -62.084022
LeftForeArm 13.386168 -0.000000 -0.921382
LeftHand -2.055057 0.000000 -8.809061
LeftHandThumb1 -26.253704 0.000000 33.147579
RightShoulder 16.701340 -3.945376 -5.642415
RightArm 38.414368 9.624306 61.369086
RightForeArm -4.123512 0.000000 4.674550
RightHand -5.526952 -0.000000 3.005660
RightHandThumb1 -24.326973 -0.000000 -32.862282
LeftUpLeg -120.028473 -2.646030 -41.813644
LeftLeg 111.789509 -0.000000 -0.000000
LeftFoot -37.031992 22.831957 -7.835564
LeftToeBase 23.731125 -0.000000 -0.000000
RightUpLeg 12.121677 -19.267733 -21.050236
RightLeg 129.885453 -0.000000 -0.000000
RightFoot 43.716334 -22.513966 -3.379881
RightToeBase 28.902615 -0.000000 -0.000000
537
root 21.680449 15.457474 -22.640101 -155.742762 18.162705 -209.837328
Spine 29.966654 33.299801 -34.666117
Head 8.621123 -12.441241 0.593130
LeftShoulder -5.304502 -18.781711 -9.921121
LeftArm -20.188066 24.555459 -62.551438
LeftForeArm 15.706365 -0.000000 -0.441778
LeftHand -0.594584 -0.000000 -5.207154
LeftHandThumb1 -26.253704 0.000000 33.147579
RightShoulder 16.737817 -3.951888 -5.711040
RightArm 38.365952 9.830522 61.603167
RightForeArm -4.122654 0.000000 4.580257
RightHand -5.488011 -0.000000 3.007610
RightHandThumb1 -24.326973 -0.000000 -32.862282
LeftUpLeg -120.147621 -2.740385 -41.850903
LeftLeg 111.735188 -0.000000 -0.000000
LeftFoot -36.959981 22.765503 -7.731811
LeftToeBase 23.621517 -0.000000 -0.000000
RightUpLeg 11.916732 -19.313964 -20.905918
RightLeg 130.121812 -0.000000 -0.000000
RightFoot 43.703969 -22.878135 -3.555474
RightToeBase 28.793667 -0.000000 -0.000000
538
root 21.693226 15.464056 -22.626304 -155.564050 18.145373 -209.860841
Spine 29.777172 33.286826 -34.875884
Head 8.470074 -12.283682 0.476790
LeftShoulder -5.461187 -18.717260 -9.780198
LeftArm -20.534882 24.503585 -63.116333
LeftForeArm 17.817355 -0.000000 0.150666
LeftHand -0.996019 0.000000 -3.045787
LeftHandThumb1 -26.253704 0.000000 33.147579
RightShoulder 16.802673 -3.876971 -5.747859
RightArm 38.283166 9.923309 61.805222
RightForeArm -4.051778 -0.000000 4.494809
RightHand -5.446622 -0.000000 2.869175
RightHandThumb1 -24.326973 -0.000000 -32.862282
LeftUpLeg -120.268354 -2.795890 -41.923529
LeftLeg 111.680232 -0.000000 -0.000000
LeftFoot -36.910784 22.709458 -7.673995
LeftToeBase 23.560814 -0.000000 -0.000000
RightUpLeg 11.661983 -19.205376 -20.786763
RightLeg 130.387836 -0.000000 -0.000000
RightFoot 43.396859 -22.589028 -3.331520
RightToeBase 29.103056 -0.000000 -0.000000
539
root 21.704435 15.471317 -22.611817 -155.410557 18.112466 -209.880152
Spine 29.648015 33.253756 -35.037961
Head 8.305818 -12.161657 0.313653
LeftShoulder -5.599293 -18.671360 -9.713423
LeftArm -20.765536 24.821424 -63.629369
LeftForeArm 17.393509 -0.000000 0.453557
LeftHand -1.501626 -0.000000 -1.834954
LeftHandThumb1 -26.253704 0.000000 33.147579
RightShoulder 16.848494 -3.845549 -5.794257
RightArm 38.251355 10.074429 62.052398
RightForeArm -4.082494 -0.000000 4.484714
RightHand -5.458346 -0.000000 2.701842
RightHandThumb1 -24.326973 -0.000000 -32.862282
LeftUpLeg -120.350444 -2.866401 -41.966866
LeftLeg 111.612647 -0.000000 -0.000000
LeftFoot -36.870345 22.691210 -7.612209
LeftToeBase 23.581505 -0.000000 -0.000000
RightUpLeg 11.408812 -19.011991 -20.664784
RightLeg 130.548379 -0.000000 -0.000000
RightFoot 43.477452 -22.316036 -2.881538
RightToeBase 29.714696 -0.000000 -0.000000
540
root 21.717886 15.478390 -22.599935 -155.319785 18.066917 -209.899484
Spine 29.615353 33.242703 -35.131838
Head 8.124657 -12.046775 0.126957
LeftShoulder -5.687377 -18.668798 -9.670362
LeftArm -20.987474 25.741657 -64.297226
LeftForeArm 14.709704 -0.000000 0.451197
LeftHand -1.020445 -0.000000 -0.852481
LeftHandThumb1 -26.253704 0.000000 33.147579
RightShoulder 16.882041 -3.823937 -5.822750
RightArm 38.268633 10.241234 62.293060
RightForeArm -4.121370 -0.000000 4.430985
RightHand -5.384882 0.000000 2.407809
RightHandThumb1 -24.326973 -0.000000 -32.862282
LeftUpLeg -120.383295 -2.894478 -42.002284
LeftLeg 111.561017 -0.000000 -0.000000
LeftFoot -36.839053 22.633851 -7.582913
LeftToeBase 23.634614 -0.000000 -0.000000
RightUpLeg 11.278991 -18.869601 -20.571247
RightLeg 130.704389 -0.000000 -0.000000
RightFoot 43.290382 -22.224337 -2.657658
RightToeBase 30.896666 -0.000000 -0.000000
